<?xml version="1.0" encoding="utf-8"?>
<!-- generated at drububu.com  -->
<!DOCTYPE svg PUBLIC "-//W3C//DTD SVG 1.1//EN" "http://www.w3.org/Graphics/SVG/1.1/DTD/svg11.dtd">
<svg version="1.1" preserveAspectRatio="xMinYMin meet" xmlns="http://www.w3.org/2000/svg" xmlns:xlink="http://www.w3.org/1999/xlink" x="0px" y="0px" width="28px" height="7px" viewBox="0 0 28 7">
<path d="M0 0h3v1h-2v2h1v1h-1v2h2v1h-3v-7z" fill="rgb(1,2,2)"/>
<path d="M3 0h1v5h1v2h-2v-1h-2v-2h1v-1h-1v-2h2v-1z" fill="rgb(255,255,255)"/>
<path d="M4 0h1v5h-1v-5z" fill="rgb(1,2,2)"/>
<path d="M5 0h1v5h-1v-5z" fill="rgb(255,255,255)"/>
<path d="M6 0h1v5h-1v-5z" fill="rgb(1,2,2)"/>
<path d="M7 0h2v1h-1v5h1v1h-3v-2h1v-5z" fill="rgb(255,255,255)"/>
<path d="M9 0h2v1h-2v-1z" fill="rgb(1,2,2)"/>
<path d="M11 0h1v1h1v6h-2v-1h-2v-5h2v-1z" fill="rgb(255,255,255)"/>
<path d="M12 0h3v1h-1v6h-1v-6h-1v-1z" fill="rgb(1,2,2)"/>
<path d="M15 0h3v1h-1v1h-1v3h1v1h1v1h-4v-6h1v-1z" fill="rgb(255,255,255)"/>
<path d="M18 0h1v1h-1v-1z" fill="rgb(1,2,2)"/>
<path d="M19 0h6v1h1v1h1v3h-1v1h-1v1h-2v-1h-2v1h-2v-1h-1v-1h-1v-3h1v-1h1v-1z" fill="rgb(255,255,255)"/>
<path d="M25 0h1v1h-1v-1z" fill="rgb(1,2,2)"/>
<path d="M26 0h2v2h-1v-1h-1v-1z" fill="rgb(255,255,255)"/>
<path d="M8 1h1v5h-1v-5z" fill="rgb(1,2,2)"/>
<path d="M17 1h1v1h-1v-1z" fill="rgb(1,2,2)"/>
<path d="M26 1h1v1h-1v-1z" fill="rgb(1,2,2)"/>
<path d="M16 2h1v3h-1v-3z" fill="rgb(1,2,2)"/>
<path d="M21 2h2v1h-2v-1z" fill="rgb(1,2,2)"/>
<path d="M27 2h1v3h-1v-3z" fill="rgb(1,2,2)"/>
<path d="M20 3h1v1h2v1h-2v1h-1v-3z" fill="rgb(1,2,2)"/>
<path d="M21 3h2v1h-2v-1z" fill="rgb(255,255,255)"/>
<path d="M23 3h1v1h-1v-1z" fill="rgb(1,2,2)"/>
<path d="M5 5h1v2h-1v-2z" fill="rgb(1,2,2)"/>
<path d="M17 5h1v1h-1v-1z" fill="rgb(1,2,2)"/>
<path d="M26 5h1v1h-1v-1z" fill="rgb(1,2,2)"/>
<path d="M27 5h1v2h-2v-1h1v-1z" fill="rgb(255,255,255)"/>
<path d="M9 6h2v1h-2v-1z" fill="rgb(1,2,2)"/>
<path d="M18 6h1v1h-1v-1z" fill="rgb(1,2,2)"/>
<path d="M21 6h2v1h-2v-1z" fill="rgb(1,2,2)"/>
<path d="M25 6h1v1h-1v-1z" fill="rgb(1,2,2)"/>
</svg>